M48
; DRILL file {KiCad (5.1.5)-3} date 14/09/2020 20:15:18
; FORMAT={-:-/ absolute / metric / decimal}
; #@! TF.CreationDate,2020-09-14T20:15:18+08:00
; #@! TF.GenerationSoftware,Kicad,Pcbnew,(5.1.5)-3
FMAT,2
METRIC
T1C0.400
T2C0.800
%
G90
G05
T1
X124.0Y-89.5
X126.0Y-91.75
X133.25Y-98.5
X134.5Y-96.25
X149.0Y-93.5
X159.188Y-79.562
X161.0Y-106.25
T2
X115.5Y-80.5
X123.12Y-80.5
X128.38Y-80.5
X136.0Y-80.5
X102.75Y-114.38
X102.75Y-122.0
X105.29Y-114.38
X105.29Y-122.0
X107.83Y-114.38
X107.83Y-122.0
X110.37Y-114.38
X110.37Y-122.0
X112.91Y-114.38
X112.91Y-122.0
X102.75Y-87.01
X102.75Y-102.25
X105.29Y-87.01
X105.29Y-102.25
X107.83Y-87.01
X107.83Y-102.25
X110.37Y-87.01
X110.37Y-102.25
X112.91Y-87.01
X112.91Y-102.25
X115.45Y-87.01
X115.45Y-102.25
X117.99Y-87.01
X117.99Y-102.25
X120.53Y-87.01
X120.53Y-102.25
X123.07Y-87.01
X123.07Y-102.25
X125.61Y-87.01
X125.61Y-102.25
X128.15Y-87.01
X128.15Y-102.25
X130.69Y-87.01
X130.69Y-102.25
X133.23Y-87.01
X133.23Y-102.25
X135.77Y-87.01
X135.77Y-102.25
X138.31Y-87.01
X138.31Y-102.25
X140.85Y-87.01
X140.85Y-102.25
X121.75Y-116.25
X124.29Y-116.25
X126.83Y-116.25
X129.37Y-116.25
X131.91Y-116.25
X134.45Y-116.25
X136.99Y-116.25
X142.25Y-106.5
X142.25Y-111.5
T0
M30
