G04 #@! TF.GenerationSoftware,KiCad,Pcbnew,(5.1.5)-3*
G04 #@! TF.CreationDate,2020-09-14T20:13:50+08:00*
G04 #@! TF.ProjectId,WizzardCartRPack,57697a7a-6172-4644-9361-727452506163,rev?*
G04 #@! TF.SameCoordinates,Original*
G04 #@! TF.FileFunction,Legend,Top*
G04 #@! TF.FilePolarity,Positive*
%FSLAX46Y46*%
G04 Gerber Fmt 4.6, Leading zero omitted, Abs format (unit mm)*
G04 Created by KiCad (PCBNEW (5.1.5)-3) date 2020-09-14 20:13:50*
%MOMM*%
%LPD*%
G04 APERTURE LIST*
%ADD10C,0.300000*%
%ADD11C,0.120000*%
%ADD12C,0.150000*%
G04 APERTURE END LIST*
D10*
X98392857Y-73903571D02*
X98392857Y-72403571D01*
X98892857Y-73475000D01*
X99392857Y-72403571D01*
X99392857Y-73903571D01*
X100678571Y-73832142D02*
X100535714Y-73903571D01*
X100250000Y-73903571D01*
X100107142Y-73832142D01*
X100035714Y-73689285D01*
X100035714Y-73117857D01*
X100107142Y-72975000D01*
X100250000Y-72903571D01*
X100535714Y-72903571D01*
X100678571Y-72975000D01*
X100750000Y-73117857D01*
X100750000Y-73260714D01*
X100035714Y-73403571D01*
X102035714Y-72903571D02*
X102035714Y-74117857D01*
X101964285Y-74260714D01*
X101892857Y-74332142D01*
X101750000Y-74403571D01*
X101535714Y-74403571D01*
X101392857Y-74332142D01*
X102035714Y-73832142D02*
X101892857Y-73903571D01*
X101607142Y-73903571D01*
X101464285Y-73832142D01*
X101392857Y-73760714D01*
X101321428Y-73617857D01*
X101321428Y-73189285D01*
X101392857Y-73046428D01*
X101464285Y-72975000D01*
X101607142Y-72903571D01*
X101892857Y-72903571D01*
X102035714Y-72975000D01*
X103392857Y-73903571D02*
X103392857Y-73117857D01*
X103321428Y-72975000D01*
X103178571Y-72903571D01*
X102892857Y-72903571D01*
X102750000Y-72975000D01*
X103392857Y-73832142D02*
X103250000Y-73903571D01*
X102892857Y-73903571D01*
X102750000Y-73832142D01*
X102678571Y-73689285D01*
X102678571Y-73546428D01*
X102750000Y-73403571D01*
X102892857Y-73332142D01*
X103250000Y-73332142D01*
X103392857Y-73260714D01*
X104964285Y-73760714D02*
X104892857Y-73832142D01*
X104678571Y-73903571D01*
X104535714Y-73903571D01*
X104321428Y-73832142D01*
X104178571Y-73689285D01*
X104107142Y-73546428D01*
X104035714Y-73260714D01*
X104035714Y-73046428D01*
X104107142Y-72760714D01*
X104178571Y-72617857D01*
X104321428Y-72475000D01*
X104535714Y-72403571D01*
X104678571Y-72403571D01*
X104892857Y-72475000D01*
X104964285Y-72546428D01*
X105535714Y-73475000D02*
X106250000Y-73475000D01*
X105392857Y-73903571D02*
X105892857Y-72403571D01*
X106392857Y-73903571D01*
X107750000Y-73903571D02*
X107250000Y-73189285D01*
X106892857Y-73903571D02*
X106892857Y-72403571D01*
X107464285Y-72403571D01*
X107607142Y-72475000D01*
X107678571Y-72546428D01*
X107750000Y-72689285D01*
X107750000Y-72903571D01*
X107678571Y-73046428D01*
X107607142Y-73117857D01*
X107464285Y-73189285D01*
X106892857Y-73189285D01*
X108178571Y-72403571D02*
X109035714Y-72403571D01*
X108607142Y-73903571D02*
X108607142Y-72403571D01*
X110678571Y-73332142D02*
X111821428Y-73332142D01*
X114535714Y-73760714D02*
X114464285Y-73832142D01*
X114250000Y-73903571D01*
X114107142Y-73903571D01*
X113892857Y-73832142D01*
X113750000Y-73689285D01*
X113678571Y-73546428D01*
X113607142Y-73260714D01*
X113607142Y-73046428D01*
X113678571Y-72760714D01*
X113750000Y-72617857D01*
X113892857Y-72475000D01*
X114107142Y-72403571D01*
X114250000Y-72403571D01*
X114464285Y-72475000D01*
X114535714Y-72546428D01*
X115178571Y-73903571D02*
X115178571Y-72403571D01*
X115821428Y-73903571D02*
X115821428Y-73117857D01*
X115750000Y-72975000D01*
X115607142Y-72903571D01*
X115392857Y-72903571D01*
X115250000Y-72975000D01*
X115178571Y-73046428D01*
X117107142Y-73832142D02*
X116964285Y-73903571D01*
X116678571Y-73903571D01*
X116535714Y-73832142D01*
X116464285Y-73689285D01*
X116464285Y-73117857D01*
X116535714Y-72975000D01*
X116678571Y-72903571D01*
X116964285Y-72903571D01*
X117107142Y-72975000D01*
X117178571Y-73117857D01*
X117178571Y-73260714D01*
X116464285Y-73403571D01*
X117750000Y-73832142D02*
X117892857Y-73903571D01*
X118178571Y-73903571D01*
X118321428Y-73832142D01*
X118392857Y-73689285D01*
X118392857Y-73617857D01*
X118321428Y-73475000D01*
X118178571Y-73403571D01*
X117964285Y-73403571D01*
X117821428Y-73332142D01*
X117750000Y-73189285D01*
X117750000Y-73117857D01*
X117821428Y-72975000D01*
X117964285Y-72903571D01*
X118178571Y-72903571D01*
X118321428Y-72975000D01*
X119035714Y-73903571D02*
X119035714Y-72403571D01*
X119678571Y-73903571D02*
X119678571Y-73117857D01*
X119607142Y-72975000D01*
X119464285Y-72903571D01*
X119250000Y-72903571D01*
X119107142Y-72975000D01*
X119035714Y-73046428D01*
X120392857Y-73903571D02*
X120392857Y-72903571D01*
X120392857Y-72403571D02*
X120321428Y-72475000D01*
X120392857Y-72546428D01*
X120464285Y-72475000D01*
X120392857Y-72403571D01*
X120392857Y-72546428D01*
X121107142Y-73903571D02*
X121107142Y-72903571D01*
X121107142Y-73189285D02*
X121178571Y-73046428D01*
X121250000Y-72975000D01*
X121392857Y-72903571D01*
X121535714Y-72903571D01*
X122607142Y-73832142D02*
X122464285Y-73903571D01*
X122178571Y-73903571D01*
X122035714Y-73832142D01*
X121964285Y-73689285D01*
X121964285Y-73117857D01*
X122035714Y-72975000D01*
X122178571Y-72903571D01*
X122464285Y-72903571D01*
X122607142Y-72975000D01*
X122678571Y-73117857D01*
X122678571Y-73260714D01*
X121964285Y-73403571D01*
X124464285Y-73903571D02*
X124464285Y-72403571D01*
X125321428Y-73903571D01*
X125321428Y-72403571D01*
X126250000Y-73903571D02*
X126107142Y-73832142D01*
X126035714Y-73760714D01*
X125964285Y-73617857D01*
X125964285Y-73189285D01*
X126035714Y-73046428D01*
X126107142Y-72975000D01*
X126250000Y-72903571D01*
X126464285Y-72903571D01*
X126607142Y-72975000D01*
X126678571Y-73046428D01*
X126750000Y-73189285D01*
X126750000Y-73617857D01*
X126678571Y-73760714D01*
X126607142Y-73832142D01*
X126464285Y-73903571D01*
X126250000Y-73903571D01*
X127392857Y-73903571D02*
X127392857Y-72903571D01*
X127392857Y-72403571D02*
X127321428Y-72475000D01*
X127392857Y-72546428D01*
X127464285Y-72475000D01*
X127392857Y-72403571D01*
X127392857Y-72546428D01*
X128107142Y-73903571D02*
X128107142Y-72903571D01*
X128107142Y-73189285D02*
X128178571Y-73046428D01*
X128250000Y-72975000D01*
X128392857Y-72903571D01*
X128535714Y-72903571D01*
X130821428Y-73903571D02*
X130821428Y-73117857D01*
X130750000Y-72975000D01*
X130607142Y-72903571D01*
X130321428Y-72903571D01*
X130178571Y-72975000D01*
X130821428Y-73832142D02*
X130678571Y-73903571D01*
X130321428Y-73903571D01*
X130178571Y-73832142D01*
X130107142Y-73689285D01*
X130107142Y-73546428D01*
X130178571Y-73403571D01*
X130321428Y-73332142D01*
X130678571Y-73332142D01*
X130821428Y-73260714D01*
X131535714Y-72903571D02*
X131535714Y-73903571D01*
X131535714Y-73046428D02*
X131607142Y-72975000D01*
X131750000Y-72903571D01*
X131964285Y-72903571D01*
X132107142Y-72975000D01*
X132178571Y-73117857D01*
X132178571Y-73903571D01*
X133535714Y-73903571D02*
X133535714Y-72403571D01*
X133535714Y-73832142D02*
X133392857Y-73903571D01*
X133107142Y-73903571D01*
X132964285Y-73832142D01*
X132892857Y-73760714D01*
X132821428Y-73617857D01*
X132821428Y-73189285D01*
X132892857Y-73046428D01*
X132964285Y-72975000D01*
X133107142Y-72903571D01*
X133392857Y-72903571D01*
X133535714Y-72975000D01*
X136250000Y-73760714D02*
X136178571Y-73832142D01*
X135964285Y-73903571D01*
X135821428Y-73903571D01*
X135607142Y-73832142D01*
X135464285Y-73689285D01*
X135392857Y-73546428D01*
X135321428Y-73260714D01*
X135321428Y-73046428D01*
X135392857Y-72760714D01*
X135464285Y-72617857D01*
X135607142Y-72475000D01*
X135821428Y-72403571D01*
X135964285Y-72403571D01*
X136178571Y-72475000D01*
X136250000Y-72546428D01*
X137107142Y-73903571D02*
X136964285Y-73832142D01*
X136892857Y-73689285D01*
X136892857Y-72403571D01*
X137892857Y-73903571D02*
X137750000Y-73832142D01*
X137678571Y-73760714D01*
X137607142Y-73617857D01*
X137607142Y-73189285D01*
X137678571Y-73046428D01*
X137750000Y-72975000D01*
X137892857Y-72903571D01*
X138107142Y-72903571D01*
X138250000Y-72975000D01*
X138321428Y-73046428D01*
X138392857Y-73189285D01*
X138392857Y-73617857D01*
X138321428Y-73760714D01*
X138250000Y-73832142D01*
X138107142Y-73903571D01*
X137892857Y-73903571D01*
X139678571Y-73832142D02*
X139535714Y-73903571D01*
X139250000Y-73903571D01*
X139107142Y-73832142D01*
X139035714Y-73760714D01*
X138964285Y-73617857D01*
X138964285Y-73189285D01*
X139035714Y-73046428D01*
X139107142Y-72975000D01*
X139250000Y-72903571D01*
X139535714Y-72903571D01*
X139678571Y-72975000D01*
X140321428Y-73903571D02*
X140321428Y-72403571D01*
X140464285Y-73332142D02*
X140892857Y-73903571D01*
X140892857Y-72903571D02*
X140321428Y-73475000D01*
X141535714Y-73903571D02*
X141535714Y-72903571D01*
X141535714Y-73046428D02*
X141607142Y-72975000D01*
X141750000Y-72903571D01*
X141964285Y-72903571D01*
X142107142Y-72975000D01*
X142178571Y-73117857D01*
X142178571Y-73903571D01*
X142178571Y-73117857D02*
X142250000Y-72975000D01*
X142392857Y-72903571D01*
X142607142Y-72903571D01*
X142750000Y-72975000D01*
X142821428Y-73117857D01*
X142821428Y-73903571D01*
X144107142Y-73832142D02*
X143964285Y-73903571D01*
X143678571Y-73903571D01*
X143535714Y-73832142D01*
X143464285Y-73689285D01*
X143464285Y-73117857D01*
X143535714Y-72975000D01*
X143678571Y-72903571D01*
X143964285Y-72903571D01*
X144107142Y-72975000D01*
X144178571Y-73117857D01*
X144178571Y-73260714D01*
X143464285Y-73403571D01*
X144821428Y-73903571D02*
X144821428Y-72903571D01*
X144821428Y-72403571D02*
X144750000Y-72475000D01*
X144821428Y-72546428D01*
X144892857Y-72475000D01*
X144821428Y-72403571D01*
X144821428Y-72546428D01*
X145464285Y-73832142D02*
X145607142Y-73903571D01*
X145892857Y-73903571D01*
X146035714Y-73832142D01*
X146107142Y-73689285D01*
X146107142Y-73617857D01*
X146035714Y-73475000D01*
X145892857Y-73403571D01*
X145678571Y-73403571D01*
X145535714Y-73332142D01*
X145464285Y-73189285D01*
X145464285Y-73117857D01*
X145535714Y-72975000D01*
X145678571Y-72903571D01*
X145892857Y-72903571D01*
X146035714Y-72975000D01*
X146535714Y-72903571D02*
X147107142Y-72903571D01*
X146750000Y-72403571D02*
X146750000Y-73689285D01*
X146821428Y-73832142D01*
X146964285Y-73903571D01*
X147107142Y-73903571D01*
X148178571Y-73832142D02*
X148035714Y-73903571D01*
X147750000Y-73903571D01*
X147607142Y-73832142D01*
X147535714Y-73689285D01*
X147535714Y-73117857D01*
X147607142Y-72975000D01*
X147750000Y-72903571D01*
X148035714Y-72903571D01*
X148178571Y-72975000D01*
X148250000Y-73117857D01*
X148250000Y-73260714D01*
X147535714Y-73403571D01*
X148892857Y-73903571D02*
X148892857Y-72903571D01*
X148892857Y-73189285D02*
X148964285Y-73046428D01*
X149035714Y-72975000D01*
X149178571Y-72903571D01*
X149321428Y-72903571D01*
X115535714Y-76310714D02*
X115464285Y-76382142D01*
X115250000Y-76453571D01*
X115107142Y-76453571D01*
X114892857Y-76382142D01*
X114750000Y-76239285D01*
X114678571Y-76096428D01*
X114607142Y-75810714D01*
X114607142Y-75596428D01*
X114678571Y-75310714D01*
X114750000Y-75167857D01*
X114892857Y-75025000D01*
X115107142Y-74953571D01*
X115250000Y-74953571D01*
X115464285Y-75025000D01*
X115535714Y-75096428D01*
X117035714Y-76310714D02*
X116964285Y-76382142D01*
X116750000Y-76453571D01*
X116607142Y-76453571D01*
X116392857Y-76382142D01*
X116250000Y-76239285D01*
X116178571Y-76096428D01*
X116107142Y-75810714D01*
X116107142Y-75596428D01*
X116178571Y-75310714D01*
X116250000Y-75167857D01*
X116392857Y-75025000D01*
X116607142Y-74953571D01*
X116750000Y-74953571D01*
X116964285Y-75025000D01*
X117035714Y-75096428D01*
X119321428Y-75667857D02*
X119535714Y-75739285D01*
X119607142Y-75810714D01*
X119678571Y-75953571D01*
X119678571Y-76167857D01*
X119607142Y-76310714D01*
X119535714Y-76382142D01*
X119392857Y-76453571D01*
X118821428Y-76453571D01*
X118821428Y-74953571D01*
X119321428Y-74953571D01*
X119464285Y-75025000D01*
X119535714Y-75096428D01*
X119607142Y-75239285D01*
X119607142Y-75382142D01*
X119535714Y-75525000D01*
X119464285Y-75596428D01*
X119321428Y-75667857D01*
X118821428Y-75667857D01*
X120607142Y-75739285D02*
X120607142Y-76453571D01*
X120107142Y-74953571D02*
X120607142Y-75739285D01*
X121107142Y-74953571D01*
X121607142Y-75882142D02*
X122750000Y-75882142D01*
X123392857Y-76382142D02*
X123607142Y-76453571D01*
X123964285Y-76453571D01*
X124107142Y-76382142D01*
X124178571Y-76310714D01*
X124250000Y-76167857D01*
X124250000Y-76025000D01*
X124178571Y-75882142D01*
X124107142Y-75810714D01*
X123964285Y-75739285D01*
X123678571Y-75667857D01*
X123535714Y-75596428D01*
X123464285Y-75525000D01*
X123392857Y-75382142D01*
X123392857Y-75239285D01*
X123464285Y-75096428D01*
X123535714Y-75025000D01*
X123678571Y-74953571D01*
X124035714Y-74953571D01*
X124250000Y-75025000D01*
X124821428Y-76025000D02*
X125535714Y-76025000D01*
X124678571Y-76453571D02*
X125178571Y-74953571D01*
X125678571Y-76453571D01*
X127107142Y-74953571D02*
X127607142Y-76453571D01*
X128107142Y-74953571D01*
X129392857Y-76453571D02*
X128535714Y-76453571D01*
X128964285Y-76453571D02*
X128964285Y-74953571D01*
X128821428Y-75167857D01*
X128678571Y-75310714D01*
X128535714Y-75382142D01*
X130035714Y-76310714D02*
X130107142Y-76382142D01*
X130035714Y-76453571D01*
X129964285Y-76382142D01*
X130035714Y-76310714D01*
X130035714Y-76453571D01*
X131535714Y-76453571D02*
X130678571Y-76453571D01*
X131107142Y-76453571D02*
X131107142Y-74953571D01*
X130964285Y-75167857D01*
X130821428Y-75310714D01*
X130678571Y-75382142D01*
X132821428Y-76453571D02*
X132821428Y-75667857D01*
X132750000Y-75525000D01*
X132607142Y-75453571D01*
X132321428Y-75453571D01*
X132178571Y-75525000D01*
X132821428Y-76382142D02*
X132678571Y-76453571D01*
X132321428Y-76453571D01*
X132178571Y-76382142D01*
X132107142Y-76239285D01*
X132107142Y-76096428D01*
X132178571Y-75953571D01*
X132321428Y-75882142D01*
X132678571Y-75882142D01*
X132821428Y-75810714D01*
D11*
X123020000Y-114850000D02*
X123020000Y-117650000D01*
X138430000Y-114850000D02*
X120310000Y-114850000D01*
X138430000Y-117650000D02*
X138430000Y-114850000D01*
X120310000Y-117650000D02*
X138430000Y-117650000D01*
X120310000Y-114850000D02*
X120310000Y-117650000D01*
X101420000Y-93630000D02*
G75*
G02X101420000Y-95630000I0J-1000000D01*
G01*
X101420000Y-95630000D02*
X101420000Y-100690000D01*
X101420000Y-100690000D02*
X142180000Y-100690000D01*
X142180000Y-100690000D02*
X142180000Y-88570000D01*
X142180000Y-88570000D02*
X101420000Y-88570000D01*
X101420000Y-88570000D02*
X101420000Y-93630000D01*
X101360000Y-103690000D02*
X142240000Y-103690000D01*
X142240000Y-103690000D02*
X142240000Y-85570000D01*
X142240000Y-85570000D02*
X101360000Y-85570000D01*
X101360000Y-85570000D02*
X101360000Y-103690000D01*
X133710000Y-81620000D02*
X133710000Y-79380000D01*
X133470000Y-81620000D02*
X133470000Y-79380000D01*
X133590000Y-81620000D02*
X133590000Y-79380000D01*
X129420000Y-80500000D02*
X130070000Y-80500000D01*
X134960000Y-80500000D02*
X134310000Y-80500000D01*
X130070000Y-81620000D02*
X134310000Y-81620000D01*
X130070000Y-79380000D02*
X130070000Y-81620000D01*
X134310000Y-79380000D02*
X130070000Y-79380000D01*
X134310000Y-81620000D02*
X134310000Y-79380000D01*
X101360000Y-112940000D02*
X101360000Y-123440000D01*
X114300000Y-112940000D02*
X101360000Y-112940000D01*
X114300000Y-123440000D02*
X114300000Y-112940000D01*
X101360000Y-123440000D02*
X114300000Y-123440000D01*
X101420000Y-115940000D02*
X101420000Y-117190000D01*
X114240000Y-115940000D02*
X101420000Y-115940000D01*
X114240000Y-120440000D02*
X114240000Y-115940000D01*
X101420000Y-120440000D02*
X114240000Y-120440000D01*
X101420000Y-119190000D02*
X101420000Y-120440000D01*
X101420000Y-117190000D02*
G75*
G02X101420000Y-119190000I0J-1000000D01*
G01*
X117790000Y-79380000D02*
X117790000Y-81620000D01*
X118030000Y-79380000D02*
X118030000Y-81620000D01*
X117910000Y-79380000D02*
X117910000Y-81620000D01*
X122080000Y-80500000D02*
X121430000Y-80500000D01*
X116540000Y-80500000D02*
X117190000Y-80500000D01*
X121430000Y-79380000D02*
X117190000Y-79380000D01*
X121430000Y-81620000D02*
X121430000Y-79380000D01*
X117190000Y-81620000D02*
X121430000Y-81620000D01*
X117190000Y-79380000D02*
X117190000Y-81620000D01*
X140880000Y-104880000D02*
X143620000Y-104880000D01*
X140880000Y-113120000D02*
X143620000Y-113120000D01*
X143620000Y-113120000D02*
X143620000Y-104880000D01*
X140880000Y-113120000D02*
X140880000Y-104880000D01*
D12*
X161278571Y-122640476D02*
X161278571Y-122307142D01*
X161802380Y-122164285D02*
X161802380Y-122640476D01*
X160802380Y-122640476D01*
X160802380Y-122164285D01*
X161802380Y-121211904D02*
X161802380Y-121783333D01*
X161802380Y-121497619D02*
X160802380Y-121497619D01*
X160945238Y-121592857D01*
X161040476Y-121688095D01*
X161088095Y-121783333D01*
X129949523Y-114302380D02*
X129616190Y-113826190D01*
X129378095Y-114302380D02*
X129378095Y-113302380D01*
X129759047Y-113302380D01*
X129854285Y-113350000D01*
X129901904Y-113397619D01*
X129949523Y-113492857D01*
X129949523Y-113635714D01*
X129901904Y-113730952D01*
X129854285Y-113778571D01*
X129759047Y-113826190D01*
X129378095Y-113826190D01*
X130378095Y-114302380D02*
X130378095Y-113302380D01*
X130949523Y-114302380D01*
X130949523Y-113302380D01*
X131949523Y-114302380D02*
X131378095Y-114302380D01*
X131663809Y-114302380D02*
X131663809Y-113302380D01*
X131568571Y-113445238D01*
X131473333Y-113540476D01*
X131378095Y-113588095D01*
X99872380Y-95391904D02*
X100681904Y-95391904D01*
X100777142Y-95344285D01*
X100824761Y-95296666D01*
X100872380Y-95201428D01*
X100872380Y-95010952D01*
X100824761Y-94915714D01*
X100777142Y-94868095D01*
X100681904Y-94820476D01*
X99872380Y-94820476D01*
X100872380Y-93820476D02*
X100872380Y-94391904D01*
X100872380Y-94106190D02*
X99872380Y-94106190D01*
X100015238Y-94201428D01*
X100110476Y-94296666D01*
X100158095Y-94391904D01*
X131451904Y-83072380D02*
X131451904Y-82072380D01*
X131690000Y-82072380D01*
X131832857Y-82120000D01*
X131928095Y-82215238D01*
X131975714Y-82310476D01*
X132023333Y-82500952D01*
X132023333Y-82643809D01*
X131975714Y-82834285D01*
X131928095Y-82929523D01*
X131832857Y-83024761D01*
X131690000Y-83072380D01*
X131451904Y-83072380D01*
X132975714Y-83072380D02*
X132404285Y-83072380D01*
X132690000Y-83072380D02*
X132690000Y-82072380D01*
X132594761Y-82215238D01*
X132499523Y-82310476D01*
X132404285Y-82358095D01*
X135738095Y-82752380D02*
X135738095Y-81752380D01*
X136309523Y-82752380D02*
X135880952Y-82180952D01*
X136309523Y-81752380D02*
X135738095Y-82323809D01*
X100824761Y-119523333D02*
X100872380Y-119380476D01*
X100872380Y-119142380D01*
X100824761Y-119047142D01*
X100777142Y-118999523D01*
X100681904Y-118951904D01*
X100586666Y-118951904D01*
X100491428Y-118999523D01*
X100443809Y-119047142D01*
X100396190Y-119142380D01*
X100348571Y-119332857D01*
X100300952Y-119428095D01*
X100253333Y-119475714D01*
X100158095Y-119523333D01*
X100062857Y-119523333D01*
X99967619Y-119475714D01*
X99920000Y-119428095D01*
X99872380Y-119332857D01*
X99872380Y-119094761D01*
X99920000Y-118951904D01*
X99872380Y-118618571D02*
X100872380Y-118380476D01*
X100158095Y-118190000D01*
X100872380Y-117999523D01*
X99872380Y-117761428D01*
X100872380Y-116856666D02*
X100872380Y-117428095D01*
X100872380Y-117142380D02*
X99872380Y-117142380D01*
X100015238Y-117237619D01*
X100110476Y-117332857D01*
X100158095Y-117428095D01*
X118571904Y-78832380D02*
X118571904Y-77832380D01*
X118810000Y-77832380D01*
X118952857Y-77880000D01*
X119048095Y-77975238D01*
X119095714Y-78070476D01*
X119143333Y-78260952D01*
X119143333Y-78403809D01*
X119095714Y-78594285D01*
X119048095Y-78689523D01*
X118952857Y-78784761D01*
X118810000Y-78832380D01*
X118571904Y-78832380D01*
X119524285Y-77927619D02*
X119571904Y-77880000D01*
X119667142Y-77832380D01*
X119905238Y-77832380D01*
X120000476Y-77880000D01*
X120048095Y-77927619D01*
X120095714Y-78022857D01*
X120095714Y-78118095D01*
X120048095Y-78260952D01*
X119476666Y-78832380D01*
X120095714Y-78832380D01*
X115238095Y-79152380D02*
X115238095Y-78152380D01*
X115809523Y-79152380D02*
X115380952Y-78580952D01*
X115809523Y-78152380D02*
X115238095Y-78723809D01*
X140107142Y-109166666D02*
X140154761Y-109214285D01*
X140202380Y-109357142D01*
X140202380Y-109452380D01*
X140154761Y-109595238D01*
X140059523Y-109690476D01*
X139964285Y-109738095D01*
X139773809Y-109785714D01*
X139630952Y-109785714D01*
X139440476Y-109738095D01*
X139345238Y-109690476D01*
X139250000Y-109595238D01*
X139202380Y-109452380D01*
X139202380Y-109357142D01*
X139250000Y-109214285D01*
X139297619Y-109166666D01*
X140202380Y-108214285D02*
X140202380Y-108785714D01*
X140202380Y-108500000D02*
X139202380Y-108500000D01*
X139345238Y-108595238D01*
X139440476Y-108690476D01*
X139488095Y-108785714D01*
M02*
